<?xml version="1.0" encoding="utf-8"?>
<!-- Generator: Adobe Illustrator 22.1.0, SVG Export Plug-In . SVG Version: 6.00 Build 0)  -->
<svg version="1.1" id="Calque_1" xmlns="http://www.w3.org/2000/svg" xmlns:xlink="http://www.w3.org/1999/xlink" x="0px" y="0px"
	 viewBox="0 0 88.4 109.4" style="enable-background:new 0 0 88.4 109.4;" xml:space="preserve">
<style type="text/css">
	.st0{display:none;fill:#F4F4F4;}
	.st1{fill:#B7261A;}
	.st2{fill:#6F130C;}
	.st3{fill:#F4F4F4;}
</style>
<g>
	<path class="st0" d="M88.3,51.6c0,16.1,0,32.2,0,48.2c0,0.8-0.2,0.9-0.9,0.9c-28.5,0-56.9,0-85.4,0c-0.8,0-0.9-0.2-0.9-0.9
		c0-32.2,0-64.3,0-96.5c0-0.8,0.2-0.9,0.9-0.9c28.5,0,56.9,0,85.4,0c0.8,0,0.9,0.2,0.9,0.9C88.3,19.4,88.3,35.5,88.3,51.6z
		 M45.1,96.5c8.7,0,17.4,0,26.1,0c1.3,0,2.2-1.2,2-2.6c-0.3-1.6-0.5-3.2-0.8-4.8c-0.3-1.4-0.1-2.6,0.5-4c1.2-2.7,2-5.5,2.3-8.4
		c0.6-5.9,0.1-11.8-1.2-17.5c-1.4-6.7-3.7-13.2-7.7-18.8c-2.9-4.1-6.4-7.6-11.6-8.8c-0.6-0.1-0.6-0.5-0.6-0.9c0-1.5,0-3.1,0-4.6
		c0-0.6,0.2-1.1,0.5-1.6c3.4-4.7,6.8-9.4,10.2-14.1c0.5-0.8,1.1-1.6,0.6-2.6c-0.5-1-1.4-1.2-2.4-1.2c-3.9,0-7.9,0-11.8,0
		c-0.8,0-1.1,0.2-1,1c0.1,2.2,0,4.5,0,6.7c0,1.5-0.8,2.5-2,2.4c-1.4,0-2.1-0.9-2.1-2.5c0-2.3,0-4.6,0-6.8c0-0.8-0.3-0.9-0.9-0.8
		c-0.7,0-1.5,0-2.2-0.1C42.2,6.7,42,7,42,7.6c0,2.3,0,4.5,0,6.8c0,1.5-0.7,2.5-2,2.5c-1.4,0-2.2-0.9-2.2-2.5c0-2.2,0-4.5,0-6.7
		c0-0.7-0.1-1-0.9-1c-3.7,0-7.3,0-11,0c-0.9,0-1.4,0.3-1.9,1.1c-0.6,1-0.2,1.8,0.3,2.7c2.1,3.3,4,6.6,6.3,9.7
		c2.5,3.2,3.5,6.7,3.1,10.7c-0.1,0.7-0.2,1.1-0.9,1.4c-1.4,0.6-2.6,1.4-3.8,2.4c-3.3,3-5.9,6.6-7.9,10.6c-3.3,6.5-5.2,13.5-6,20.7
		c-0.7,6.2-0.6,12.4,1.3,18.4c0.2,0.5,0.1,1,0,1.5c-0.4,2.7-0.7,5.4-1,8.1c-0.2,1.5,0.1,1.9,1.5,2.4c0.5,0.2,0.9,0.2,1.4,0.2
		c4.6,0,9.2,0,13.9,0C36.5,96.6,40.8,96.6,45.1,96.5z"/>
	<path class="st1" d="M45.1,96.5c-4.3,0-8.6,0-12.8,0.1c-4.6,0-9.2,0-13.9,0c-0.5,0-0.9,0-1.4-0.2c-1.4-0.5-1.7-0.9-1.5-2.4
		c0.3-2.7,0.7-5.4,1-8.1c0.1-0.5,0.1-1,0-1.5c-1.9-6-2-12.2-1.3-18.4c0.8-7.3,2.8-14.2,6-20.7c2-4,4.6-7.6,7.9-10.6
		c1.1-1,2.4-1.9,3.8-2.4c0.7-0.3,0.8-0.7,0.9-1.4c0.5-4-0.6-7.5-3.1-10.7c-2.3-3.1-4.2-6.4-6.3-9.7c-0.5-0.8-0.9-1.6-0.3-2.7
		c0.5-0.8,1-1.1,1.9-1.1c3.7,0,7.3,0,11,0c0.8,0,0.9,0.3,0.9,1c0,2.2,0,4.5,0,6.7c0,1.6,0.8,2.5,2.2,2.5c1.2,0,1.9-1,2-2.5
		c0-2.3,0-4.5,0-6.8c0-0.6,0.2-0.9,0.8-0.8c0.7,0.1,1.5,0,2.2,0.1c0,6.8,0,13.5,0,20.3c-1.4,0-2.8,0-4.3,0c-3,0-3,0-2.9,3.1
		c0,0.7,0.2,0.8,0.9,0.8c2.1,0,4.2,0,6.3,0c0,7.8,0,15.6,0,23.3c-1.3,0.4-2.6,0.7-3.8,1.4c-0.4,0.2-0.8,0.9-1.2,0.3
		c-0.4-0.6-1.2-1.2-0.7-2.2c0.7-1.4,1.2-2.9,1.8-4.3c0.6-1.4,0.2-2.7-0.8-3.2c-1.1-0.4-2.3,0.2-3,1.5c-0.4,0.9-0.7,1.9-1.4,2.7
		c-0.7-0.8-1.2-1.6-1.9-2.3c-1-1-2.4-0.7-3.1,0.5c-0.6,1-0.3,1.9,0.2,2.8c-0.1,0.1-0.1,0.1-0.2,0.2c-0.6-0.1-1.1-0.3-1.7-0.4
		c-1.4-0.3-2.4,0.3-2.6,1.4c-0.2,1.1,0.7,2,2,2.3c1.8,0.4,3.5,0.9,5.3,1.1c1.9,0.2,3,1.2,3.8,2.7c0.2,0.4,0.2,0.6,0,1
		c-2,3.1-2.4,6.5-1.8,10.1c0.9,5,4.5,8.9,9,9.9c0,2.7,0,5.5,0,8.2c-7.3,0-14.6,0-21.8,0c-2.8,0-2.7,0-3.2,2.8
		c-0.2,1.1,0,1.4,1.2,1.4c7.9-0.1,15.9,0,23.8,0C45.1,93.8,45.1,95.2,45.1,96.5z"/>
	<path class="st2" d="M45.1,96.5c0-1.4,0-2.7,0-4.1c0.4,0,0.8,0,1.3,0c7.2,0,14.3,0,21.5,0c1.1,0,1.2-0.4,1-1.2
		c-0.1-0.6-0.3-1.2-0.3-1.8c0-1.1-0.5-1.1-1.4-1.1c-7.4,0-14.7,0-22.1,0c0-2.7,0-5.5,0-8.2c3.1,0.4,5.8-0.3,8.2-2.3
		c4.9-4.2,6.1-11.8,2.8-17.4c-0.2-0.3-0.4-0.5-0.4-0.8c0-0.6,2-2.8,2.6-2.9c1.9-0.4,3.8-0.8,5.7-1.2c1.4-0.3,2-1.2,1.8-2.4
		c-0.2-1.2-1.3-1.7-2.7-1.4c-0.6,0.1-1.2,0.4-1.9,0.4c0.2-0.3,0.3-0.5,0.4-0.7c0.6-1.1,0.3-2.4-0.6-3c-1-0.7-2.2-0.4-3,0.7
		c-0.5,0.6-0.9,1.2-1.4,2c-0.5-1.1-1-2-1.4-3c-0.2-0.5-0.5-1-1-1.2c-0.8-0.4-1.5-0.5-2.3,0.1c-0.8,0.7-1,1.6-0.6,2.5
		c0.6,1.6,1.3,3.3,2,4.9c0.5,1.1-0.4,1.6-0.8,2.2c-0.4,0.5-0.8-0.1-1.1-0.3c-1.9-1.1-4-1.6-6.2-1.5c0-7.8,0-15.6,0-23.3
		c0.7,0,1.5-0.1,2.2-0.1c3,0,3,0,2.9-3c0-0.6-0.2-0.9-0.8-0.8c-1.4,0-2.8,0-4.3,0c0-6.8,0-13.5,0-20.3c0.7-0.2,1,0,0.9,0.8
		c-0.1,2.3,0,4.5,0,6.8c0,1.6,0.7,2.4,2.1,2.5c1.2,0,2-0.9,2-2.4c0-2.2,0-4.5,0-6.7c0-0.8,0.2-1,1-1c3.9,0,7.9,0,11.8,0
		c1,0,1.9,0.2,2.4,1.2c0.5,1,0,1.8-0.6,2.6c-3.4,4.7-6.8,9.4-10.2,14.1c-0.4,0.5-0.5,1-0.5,1.6c0,1.5,0,3.1,0,4.6
		c0,0.5,0,0.8,0.6,0.9c5.2,1.2,8.7,4.7,11.6,8.8c4,5.7,6.3,12.1,7.7,18.8c1.2,5.8,1.8,11.6,1.2,17.5c-0.3,2.9-1.1,5.8-2.3,8.4
		c-0.6,1.3-0.7,2.6-0.5,4c0.3,1.6,0.5,3.2,0.8,4.8c0.2,1.3-0.7,2.6-2,2.6C62.5,96.6,53.8,96.6,45.1,96.5z"/>
	<path class="st0" d="M45.1,54.4c2.2-0.1,4.3,0.4,6.2,1.5c0.3,0.2,0.8,0.9,1.1,0.3c0.4-0.6,1.3-1.1,0.8-2.2c-0.7-1.6-1.4-3.2-2-4.9
		c-0.4-0.9-0.2-1.8,0.6-2.5c0.7-0.6,1.5-0.5,2.3-0.1c0.5,0.3,0.8,0.7,1,1.2c0.5,1,0.9,1.9,1.4,3c0.5-0.7,1-1.3,1.4-2
		c0.8-1.1,2-1.4,3-0.7c0.9,0.6,1.2,1.8,0.6,3c-0.1,0.2-0.3,0.5-0.4,0.7c0.7,0.1,1.3-0.2,1.9-0.4c1.4-0.3,2.5,0.3,2.7,1.4
		c0.2,1.1-0.4,2.1-1.8,2.4c-1.9,0.4-3.8,0.8-5.7,1.2c-0.6,0.1-2.6,2.3-2.6,2.9c0,0.3,0.3,0.5,0.4,0.8c3.4,5.6,2.2,13.2-2.8,17.4
		c-2.4,2-5.1,2.7-8.2,2.3c-4.6-1-8.1-4.9-9-9.9c-0.6-3.6-0.2-7,1.8-10.1c0.3-0.4,0.2-0.6,0-1c-0.8-1.6-1.9-2.5-3.8-2.7
		c-1.8-0.2-3.5-0.7-5.3-1.1c-1.3-0.3-2.1-1.2-2-2.3c0.2-1.2,1.1-1.7,2.6-1.4c0.6,0.1,1.1,0.2,1.7,0.4c0.1,0,0.2,0,0.3,0
		c0-0.1-0.1-0.2-0.1-0.2c-0.5-0.9-0.8-1.8-0.2-2.8c0.7-1.2,2.1-1.5,3.1-0.5c0.7,0.7,1.2,1.5,1.9,2.3c0.6-0.8,0.9-1.8,1.4-2.7
		c0.6-1.3,1.9-1.9,3-1.5c1.1,0.5,1.4,1.8,0.8,3.2c-0.6,1.5-1.1,2.9-1.8,4.3c-0.5,1.1,0.2,1.6,0.7,2.2c0.5,0.6,0.9-0.1,1.2-0.3
		C42.5,55.2,43.8,54.8,45.1,54.4z M45.1,64.4c-1.2-0.7-2.3-0.6-3.1,0.4c-0.7,0.8-0.7,2.2,0,3.1c0.8,1,1.8,1.1,3.1,0.4
		c0.6-0.6,1-0.5,1.7,0c1.1,0.8,2.4,0.6,3.2-0.4c0.8-0.9,0.7-2.4-0.2-3.2c-0.9-0.9-2.2-1-3.2-0.1C45.9,65.2,45.6,64.6,45.1,64.4z"/>
	<path class="st0" d="M45.1,88.2c7.4,0,14.7,0,22.1,0c0.9,0,1.5,0,1.4,1.1c0,0.6,0.1,1.2,0.3,1.8c0.2,0.9,0.1,1.3-1,1.2
		c-7.2-0.1-14.3,0-21.5,0c-0.4,0-0.8,0-1.3,0c-7.9,0-15.9-0.1-23.8,0c-1.2,0-1.3-0.3-1.2-1.4c0.4-2.8,0.4-2.8,3.2-2.8
		C30.5,88.2,37.8,88.2,45.1,88.2z"/>
	<path class="st3" d="M45.1,27.1c1.4,0,2.8,0.1,4.3,0c0.7,0,0.8,0.2,0.8,0.8c0,3,0.1,3-2.9,3c-0.7,0-1.5,0-2.2,0.1
		c-2.1,0-4.2,0-6.3,0c-0.6,0-0.8-0.2-0.9-0.8c-0.1-3.1-0.1-3.1,2.9-3.1C42.2,27.1,43.6,27.1,45.1,27.1z"/>
	<path class="st2" d="M45.1,64.4c0.5,0.2,0.8,0.8,1.5,0.1c1-1,2.3-0.8,3.2,0.1c0.8,0.8,0.9,2.3,0.2,3.2c-0.8,1-2.1,1.2-3.2,0.4
		c-0.6-0.5-1.1-0.6-1.7,0C45.1,67,45.1,65.7,45.1,64.4z"/>
	<path class="st1" d="M45.1,64.4c0,1.3,0,2.6,0,3.9c-1.3,0.7-2.2,0.6-3.1-0.4c-0.7-0.9-0.7-2.2,0-3.1C42.8,63.9,43.9,63.7,45.1,64.4
		z"/>
	<path class="st1" d="M31.3,51.6c0,0.1,0.1,0.2,0.1,0.2c-0.1,0-0.2,0-0.3,0C31.1,51.7,31.2,51.7,31.3,51.6z"/>
</g>
</svg>
