<?xml version="1.0" encoding="utf-8"?>
<!-- Generator: Adobe Illustrator 22.1.0, SVG Export Plug-In . SVG Version: 6.00 Build 0)  -->
<svg version="1.1" id="Calque_1" xmlns="http://www.w3.org/2000/svg" xmlns:xlink="http://www.w3.org/1999/xlink" x="0px" y="0px"
	 viewBox="0 0 117 126.8" style="enable-background:new 0 0 117 126.8;" xml:space="preserve">
<style type="text/css">
	.st0{fill:#70140D;}
	.st1{fill:#B7271B;}
</style>
<path class="st0" d="M58.1,35.6c3.5-0.4,5.8,1.4,7.8,3.9c0.3,0.4,0.6,0.8,0.8,1.2c0.5,0.9,0.9,0.6,1.4,0c1.6-1.9,2.3-3.7,1.4-6.4
	c-1.8-5.6-3.2-11.4-4.8-17c-0.2-0.8-0.4-1.5-0.2-2.3c0.3-1,1.1-1.4,2-1.5c1.2-0.1,1.9,0.6,2.2,1.7c1,3.6,1.9,7.3,2.9,10.9
	c0.5,1.7,0.9,3.4,1.4,5.1c0.1,0.3,0.1,0.8,0.5,0.8c0.4,0.1,0.6-0.3,0.8-0.6c1.1-1.4,2.1-2.8,3.2-4.3c0.4-0.6,0.4-1.1,0.3-1.8
	c-0.8-2.8-1.4-5.7-2.1-8.6c-0.4-1.6,0.2-2.7,1.6-3c1.6-0.3,2.3,0.5,2.6,1.9c0.5,1.9,0.9,3.9,1.5,6.2c1.1-1.6,2-2.9,3-4.1
	c1.3-1.7,2.3-2,3.6-1.2c1.3,0.9,1.4,2.1,0.4,3.9c-0.6,1.2-2.3,2.3-1.7,3.4c0.6,0.9,2.4,0,3.7,0c1.3-0.1,2.3,0.1,2.9,1.4
	c0.6,1.4,0,2.7-1.5,2.8c-2.5,0.3-5.1,0.5-7.6,0.6c-1.1,0-1.8,0.4-2.3,1.2c-0.7,1.1-1.5,2.1-2.3,3.2c-0.2,0.3-0.6,0.7-0.4,1.1
	c0.3,0.4,0.8,0.2,1.1,0.1c4-0.3,8-0.6,12-0.9c0.7-0.1,1.4-0.1,2.1,0c1.3,0.1,1.9,1,1.9,2.2c0,1.2-0.7,2-2,2.1
	c-5.4,0.4-10.7,0.8-16.1,1.1c-2,0.1-3.6,0.5-4.6,2.4c-0.4,0.7-1,1.2-1.4,1.8c-0.8,1.3-2.6,2.3-2.4,3.8c0.3,2,1.5,3.9,2.4,6
	c4.8-8.3,13.8-8.2,21.5-4.3c0.7,0.4,1.4,0.8,2.1,1.3c1.7,1.1,1.8,3-0.1,3.7c-2.7,1-4.2,3.2-6,5c-3.2,3.3-6.8,5.5-11.6,4.9
	c-0.2,0-0.3,0.1-0.6,0.2c0.8,2.1,1.9,4.1,2.4,6.3c1.1,4.4,0.7,8.8,0,13.2c-1.2,7.2-3.8,13.8-8.7,19.3c-3.5,3.9-7.7,6.6-13.3,6.5
	c0-5.7,0-11.4,0-17c0.8-0.1,1.5-0.3,2.3-0.4c6.9-1.3,10.3-8.7,6.7-14.5c-2-3.3-5.1-4.8-8.9-4.7C58.1,60,58.1,47.8,58.1,35.6z
	 M64.7,64.7c1.7,0,3.2-1.5,3.1-3.2c0-1.5-1.5-3.1-2.8-3.1c-1.6,0-3.4,1.6-3.4,3.2C61.7,63.1,63.2,64.7,64.7,64.7z"/>
<path class="st1" d="M58.1,35.6c0,12.2,0,24.4,0,36.6c-6.4,0.7-10.4,6-8.9,12.1c1.1,4.5,4.3,6.9,8.8,7.6c0,5.7,0,11.4,0,17
	c-4.5,0.1-8.3-1.8-11.5-4.7c-5.9-5.4-8.9-12.5-10.2-20.2c-0.9-5.1-1.6-10.2,0.4-15.2c0.8-1.9,1.8-3.7,2.9-5.8
	c-3.3,1.1-6.2,0.7-9-0.9c-2.5-1.4-4.6-3.3-6.4-5.5c-1-1.2-2.1-2.2-3.7-2.6c-1.7-0.5-2-2.2-0.7-3.5c3.5-3.6,12.7-5.4,17.4-3.4
	c3.2,1.4,5.6,3.6,7,7.4c1.3-2.7,2.3-5.1,3.2-7.6c0.2-0.5-0.2-0.9-0.5-1.3c-1.3-1.8-2.7-3.5-3.9-5.3c-0.6-0.9-1.3-1.2-2.4-1.3
	c-6-0.5-12-1.1-18-1.7c-1.8-0.2-2.4-0.9-2.2-2.4c0.2-1.7,1.4-1.8,2.7-1.7c4.5,0.4,9,0.7,13.5,1c0.4,0,0.9,0.2,1.2-0.1
	c0.3-0.5-0.3-0.8-0.5-1.2c-1.7-3.4-4.4-5-8.3-4.5c-1,0.1-2.1-0.2-3.2-0.3c-1.5-0.1-2.4-1-2.2-2.4c0.1-1.5,1.4-1.7,2.7-1.7
	c1.4,0.1,2.9,0.2,4.7,0.3c-0.8-1.2-1.4-2.1-2-2.9c-0.4-0.6-0.8-1.2-1-1.9c-0.3-1-0.1-2,0.8-2.5c1-0.6,2-0.3,2.7,0.5
	c0.9,1,1.6,2.2,2.4,3.3c0.3,0.4,0.5,1.1,1.1,0.9c0.6-0.2,0.5-0.9,0.6-1.4c0.3-1.4,0.7-2.9,1-4.3c0.3-1.2,1.1-2,2.5-1.7
	c1.6,0.3,2.3,1.3,1.9,2.8c-0.7,2.7-1.4,5.4-2.3,8c-0.4,1.2-0.3,2.1,0.5,3.1c0.8,1,1.5,2.1,2.3,3.1c0.3,0.4,0.5,1,1,0.9
	c0.6-0.1,0.5-0.7,0.6-1.2c1.2-4.4,2.4-8.8,3.7-13.2c0.2-0.6,0.3-1.1,0.5-1.7c0.5-1.6,1.7-2.3,3.1-1.9c1.2,0.4,1.8,1.7,1.4,3.2
	c-1.7,6.3-3.5,12.5-5.3,18.8c-0.3,0.9,1.8,4.8,2.7,5c0.6,0.2,0.7-0.4,0.9-0.6c0.8-0.9,1.5-1.8,2.4-2.6
	C54.1,36.4,55.9,35.5,58.1,35.6z M51.6,64.8c1.7,0.1,3.2-1.4,3.2-3.1c0-1.6-1.4-3.2-2.8-3.3c-1.6-0.1-3.4,1.5-3.5,3.1
	C48.5,63.1,50,64.7,51.6,64.8z"/>
</svg>
